G04 #@! TF.GenerationSoftware,KiCad,Pcbnew,5.1.8-db9833491~87~ubuntu20.04.1*
G04 #@! TF.CreationDate,2020-11-19T10:24:25+01:00*
G04 #@! TF.ProjectId,malory,6d616c6f-7279-42e6-9b69-6361645f7063,v1.0*
G04 #@! TF.SameCoordinates,Original*
G04 #@! TF.FileFunction,Legend,Top*
G04 #@! TF.FilePolarity,Positive*
%FSLAX46Y46*%
G04 Gerber Fmt 4.6, Leading zero omitted, Abs format (unit mm)*
G04 Created by KiCad (PCBNEW 5.1.8-db9833491~87~ubuntu20.04.1) date 2020-11-19 10:24:25*
%MOMM*%
%LPD*%
G01*
G04 APERTURE LIST*
%ADD10C,0.300000*%
%ADD11C,0.120000*%
%ADD12C,0.150000*%
G04 APERTURE END LIST*
D10*
X134465714Y-107208571D02*
X134822857Y-108208571D01*
X135180000Y-107208571D01*
X136394285Y-108208571D02*
X136394285Y-106708571D01*
X136394285Y-108137142D02*
X136251428Y-108208571D01*
X135965714Y-108208571D01*
X135822857Y-108137142D01*
X135751428Y-108065714D01*
X135680000Y-107922857D01*
X135680000Y-107494285D01*
X135751428Y-107351428D01*
X135822857Y-107280000D01*
X135965714Y-107208571D01*
X136251428Y-107208571D01*
X136394285Y-107280000D01*
X137751428Y-108208571D02*
X137751428Y-106708571D01*
X137751428Y-108137142D02*
X137608571Y-108208571D01*
X137322857Y-108208571D01*
X137180000Y-108137142D01*
X137108571Y-108065714D01*
X137037142Y-107922857D01*
X137037142Y-107494285D01*
X137108571Y-107351428D01*
X137180000Y-107280000D01*
X137322857Y-107208571D01*
X137608571Y-107208571D01*
X137751428Y-107280000D01*
X144755714Y-107208571D02*
X145112857Y-108208571D01*
X145470000Y-107208571D01*
X146684285Y-108208571D02*
X146684285Y-106708571D01*
X146684285Y-108137142D02*
X146541428Y-108208571D01*
X146255714Y-108208571D01*
X146112857Y-108137142D01*
X146041428Y-108065714D01*
X145970000Y-107922857D01*
X145970000Y-107494285D01*
X146041428Y-107351428D01*
X146112857Y-107280000D01*
X146255714Y-107208571D01*
X146541428Y-107208571D01*
X146684285Y-107280000D01*
X148041428Y-108208571D02*
X148041428Y-106708571D01*
X148041428Y-108137142D02*
X147898571Y-108208571D01*
X147612857Y-108208571D01*
X147470000Y-108137142D01*
X147398571Y-108065714D01*
X147327142Y-107922857D01*
X147327142Y-107494285D01*
X147398571Y-107351428D01*
X147470000Y-107280000D01*
X147612857Y-107208571D01*
X147898571Y-107208571D01*
X148041428Y-107280000D01*
X135907142Y-99578571D02*
X136478571Y-99578571D01*
X136121428Y-99078571D02*
X136121428Y-100364285D01*
X136192857Y-100507142D01*
X136335714Y-100578571D01*
X136478571Y-100578571D01*
X136835714Y-100578571D02*
X137621428Y-99578571D01*
X136835714Y-99578571D02*
X137621428Y-100578571D01*
X136085714Y-103178571D02*
X136085714Y-102178571D01*
X136085714Y-102464285D02*
X136157142Y-102321428D01*
X136228571Y-102250000D01*
X136371428Y-102178571D01*
X136514285Y-102178571D01*
X136871428Y-103178571D02*
X137657142Y-102178571D01*
X136871428Y-102178571D02*
X137657142Y-103178571D01*
X134964285Y-104678571D02*
X134964285Y-105892857D01*
X134892857Y-106035714D01*
X134821428Y-106107142D01*
X134678571Y-106178571D01*
X134464285Y-106178571D01*
X134321428Y-106107142D01*
X134964285Y-105607142D02*
X134821428Y-105678571D01*
X134535714Y-105678571D01*
X134392857Y-105607142D01*
X134321428Y-105535714D01*
X134250000Y-105392857D01*
X134250000Y-104964285D01*
X134321428Y-104821428D01*
X134392857Y-104750000D01*
X134535714Y-104678571D01*
X134821428Y-104678571D01*
X134964285Y-104750000D01*
X135678571Y-104678571D02*
X135678571Y-105678571D01*
X135678571Y-104821428D02*
X135750000Y-104750000D01*
X135892857Y-104678571D01*
X136107142Y-104678571D01*
X136250000Y-104750000D01*
X136321428Y-104892857D01*
X136321428Y-105678571D01*
X137678571Y-105678571D02*
X137678571Y-104178571D01*
X137678571Y-105607142D02*
X137535714Y-105678571D01*
X137250000Y-105678571D01*
X137107142Y-105607142D01*
X137035714Y-105535714D01*
X136964285Y-105392857D01*
X136964285Y-104964285D01*
X137035714Y-104821428D01*
X137107142Y-104750000D01*
X137250000Y-104678571D01*
X137535714Y-104678571D01*
X137678571Y-104750000D01*
X145464285Y-104678571D02*
X145464285Y-105892857D01*
X145392857Y-106035714D01*
X145321428Y-106107142D01*
X145178571Y-106178571D01*
X144964285Y-106178571D01*
X144821428Y-106107142D01*
X145464285Y-105607142D02*
X145321428Y-105678571D01*
X145035714Y-105678571D01*
X144892857Y-105607142D01*
X144821428Y-105535714D01*
X144750000Y-105392857D01*
X144750000Y-104964285D01*
X144821428Y-104821428D01*
X144892857Y-104750000D01*
X145035714Y-104678571D01*
X145321428Y-104678571D01*
X145464285Y-104750000D01*
X146178571Y-104678571D02*
X146178571Y-105678571D01*
X146178571Y-104821428D02*
X146250000Y-104750000D01*
X146392857Y-104678571D01*
X146607142Y-104678571D01*
X146750000Y-104750000D01*
X146821428Y-104892857D01*
X146821428Y-105678571D01*
X148178571Y-105678571D02*
X148178571Y-104178571D01*
X148178571Y-105607142D02*
X148035714Y-105678571D01*
X147750000Y-105678571D01*
X147607142Y-105607142D01*
X147535714Y-105535714D01*
X147464285Y-105392857D01*
X147464285Y-104964285D01*
X147535714Y-104821428D01*
X147607142Y-104750000D01*
X147750000Y-104678571D01*
X148035714Y-104678571D01*
X148178571Y-104750000D01*
X144678571Y-102078571D02*
X144678571Y-103078571D01*
X144678571Y-102221428D02*
X144750000Y-102150000D01*
X144892857Y-102078571D01*
X145107142Y-102078571D01*
X145250000Y-102150000D01*
X145321428Y-102292857D01*
X145321428Y-103078571D01*
X146035714Y-103078571D02*
X146035714Y-102078571D01*
X146035714Y-102364285D02*
X146107142Y-102221428D01*
X146178571Y-102150000D01*
X146321428Y-102078571D01*
X146464285Y-102078571D01*
X146892857Y-103007142D02*
X147035714Y-103078571D01*
X147321428Y-103078571D01*
X147464285Y-103007142D01*
X147535714Y-102864285D01*
X147535714Y-102792857D01*
X147464285Y-102650000D01*
X147321428Y-102578571D01*
X147107142Y-102578571D01*
X146964285Y-102507142D01*
X146892857Y-102364285D01*
X146892857Y-102292857D01*
X146964285Y-102150000D01*
X147107142Y-102078571D01*
X147321428Y-102078571D01*
X147464285Y-102150000D01*
X147964285Y-102078571D02*
X148535714Y-102078571D01*
X148178571Y-101578571D02*
X148178571Y-102864285D01*
X148250000Y-103007142D01*
X148392857Y-103078571D01*
X148535714Y-103078571D01*
X144735714Y-100607142D02*
X144878571Y-100678571D01*
X145164285Y-100678571D01*
X145307142Y-100607142D01*
X145378571Y-100464285D01*
X145378571Y-100392857D01*
X145307142Y-100250000D01*
X145164285Y-100178571D01*
X144950000Y-100178571D01*
X144807142Y-100107142D01*
X144735714Y-99964285D01*
X144735714Y-99892857D01*
X144807142Y-99750000D01*
X144950000Y-99678571D01*
X145164285Y-99678571D01*
X145307142Y-99750000D01*
X145878571Y-99678571D02*
X146164285Y-100678571D01*
X146450000Y-99964285D01*
X146735714Y-100678571D01*
X147021428Y-99678571D01*
X147592857Y-100678571D02*
X147592857Y-99678571D01*
X147592857Y-99178571D02*
X147521428Y-99250000D01*
X147592857Y-99321428D01*
X147664285Y-99250000D01*
X147592857Y-99178571D01*
X147592857Y-99321428D01*
X148307142Y-100678571D02*
X148307142Y-99678571D01*
X148307142Y-99821428D02*
X148378571Y-99750000D01*
X148521428Y-99678571D01*
X148735714Y-99678571D01*
X148878571Y-99750000D01*
X148950000Y-99892857D01*
X148950000Y-100678571D01*
X148950000Y-99892857D02*
X149021428Y-99750000D01*
X149164285Y-99678571D01*
X149378571Y-99678571D01*
X149521428Y-99750000D01*
X149592857Y-99892857D01*
X149592857Y-100678571D01*
X129085714Y-120733571D02*
X129085714Y-119233571D01*
X129585714Y-120305000D01*
X130085714Y-119233571D01*
X130085714Y-120733571D01*
X131442857Y-120733571D02*
X131442857Y-119947857D01*
X131371428Y-119805000D01*
X131228571Y-119733571D01*
X130942857Y-119733571D01*
X130800000Y-119805000D01*
X131442857Y-120662142D02*
X131300000Y-120733571D01*
X130942857Y-120733571D01*
X130800000Y-120662142D01*
X130728571Y-120519285D01*
X130728571Y-120376428D01*
X130800000Y-120233571D01*
X130942857Y-120162142D01*
X131300000Y-120162142D01*
X131442857Y-120090714D01*
X132371428Y-120733571D02*
X132228571Y-120662142D01*
X132157142Y-120519285D01*
X132157142Y-119233571D01*
X133157142Y-120733571D02*
X133014285Y-120662142D01*
X132942857Y-120590714D01*
X132871428Y-120447857D01*
X132871428Y-120019285D01*
X132942857Y-119876428D01*
X133014285Y-119805000D01*
X133157142Y-119733571D01*
X133371428Y-119733571D01*
X133514285Y-119805000D01*
X133585714Y-119876428D01*
X133657142Y-120019285D01*
X133657142Y-120447857D01*
X133585714Y-120590714D01*
X133514285Y-120662142D01*
X133371428Y-120733571D01*
X133157142Y-120733571D01*
X134300000Y-120733571D02*
X134300000Y-119733571D01*
X134300000Y-120019285D02*
X134371428Y-119876428D01*
X134442857Y-119805000D01*
X134585714Y-119733571D01*
X134728571Y-119733571D01*
X135085714Y-119733571D02*
X135442857Y-120733571D01*
X135800000Y-119733571D02*
X135442857Y-120733571D01*
X135300000Y-121090714D01*
X135228571Y-121162142D01*
X135085714Y-121233571D01*
X137371428Y-119733571D02*
X137728571Y-120733571D01*
X138085714Y-119733571D01*
X139442857Y-120733571D02*
X138585714Y-120733571D01*
X139014285Y-120733571D02*
X139014285Y-119233571D01*
X138871428Y-119447857D01*
X138728571Y-119590714D01*
X138585714Y-119662142D01*
X140085714Y-120590714D02*
X140157142Y-120662142D01*
X140085714Y-120733571D01*
X140014285Y-120662142D01*
X140085714Y-120590714D01*
X140085714Y-120733571D01*
X141085714Y-119233571D02*
X141228571Y-119233571D01*
X141371428Y-119305000D01*
X141442857Y-119376428D01*
X141514285Y-119519285D01*
X141585714Y-119805000D01*
X141585714Y-120162142D01*
X141514285Y-120447857D01*
X141442857Y-120590714D01*
X141371428Y-120662142D01*
X141228571Y-120733571D01*
X141085714Y-120733571D01*
X140942857Y-120662142D01*
X140871428Y-120590714D01*
X140800000Y-120447857D01*
X140728571Y-120162142D01*
X140728571Y-119805000D01*
X140800000Y-119519285D01*
X140871428Y-119376428D01*
X140942857Y-119305000D01*
X141085714Y-119233571D01*
X128800000Y-122283571D02*
X129085714Y-123283571D01*
X129371428Y-122569285D01*
X129657142Y-123283571D01*
X129942857Y-122283571D01*
X130371428Y-122283571D02*
X130657142Y-123283571D01*
X130942857Y-122569285D01*
X131228571Y-123283571D01*
X131514285Y-122283571D01*
X131942857Y-122283571D02*
X132228571Y-123283571D01*
X132514285Y-122569285D01*
X132800000Y-123283571D01*
X133085714Y-122283571D01*
X133657142Y-123140714D02*
X133728571Y-123212142D01*
X133657142Y-123283571D01*
X133585714Y-123212142D01*
X133657142Y-123140714D01*
X133657142Y-123283571D01*
X134300000Y-121926428D02*
X134371428Y-121855000D01*
X134514285Y-121783571D01*
X134871428Y-121783571D01*
X135014285Y-121855000D01*
X135085714Y-121926428D01*
X135157142Y-122069285D01*
X135157142Y-122212142D01*
X135085714Y-122426428D01*
X134228571Y-123283571D01*
X135157142Y-123283571D01*
X135800000Y-122712142D02*
X136942857Y-122712142D01*
X137942857Y-121783571D02*
X138085714Y-121783571D01*
X138228571Y-121855000D01*
X138300000Y-121926428D01*
X138371428Y-122069285D01*
X138442857Y-122355000D01*
X138442857Y-122712142D01*
X138371428Y-122997857D01*
X138300000Y-123140714D01*
X138228571Y-123212142D01*
X138085714Y-123283571D01*
X137942857Y-123283571D01*
X137800000Y-123212142D01*
X137728571Y-123140714D01*
X137657142Y-122997857D01*
X137585714Y-122712142D01*
X137585714Y-122355000D01*
X137657142Y-122069285D01*
X137728571Y-121926428D01*
X137800000Y-121855000D01*
X137942857Y-121783571D01*
X139085714Y-123140714D02*
X139157142Y-123212142D01*
X139085714Y-123283571D01*
X139014285Y-123212142D01*
X139085714Y-123140714D01*
X139085714Y-123283571D01*
X140442857Y-123283571D02*
X140442857Y-121783571D01*
X140442857Y-123212142D02*
X140300000Y-123283571D01*
X140014285Y-123283571D01*
X139871428Y-123212142D01*
X139800000Y-123140714D01*
X139728571Y-122997857D01*
X139728571Y-122569285D01*
X139800000Y-122426428D01*
X139871428Y-122355000D01*
X140014285Y-122283571D01*
X140300000Y-122283571D01*
X140442857Y-122355000D01*
X141157142Y-123283571D02*
X141157142Y-121783571D01*
X141300000Y-122712142D02*
X141728571Y-123283571D01*
X141728571Y-122283571D02*
X141157142Y-122855000D01*
D11*
X152270000Y-99130000D02*
X160330000Y-99130000D01*
X160330000Y-99130000D02*
X160330000Y-94610000D01*
X160330000Y-94610000D02*
X152270000Y-94610000D01*
X113590000Y-112337221D02*
X113590000Y-112662779D01*
X114610000Y-112337221D02*
X114610000Y-112662779D01*
D12*
X156950000Y-91225000D02*
X156950000Y-86775000D01*
X150050000Y-92750000D02*
X150050000Y-86775000D01*
D11*
X155749721Y-93190000D02*
X156075279Y-93190000D01*
X155749721Y-94210000D02*
X156075279Y-94210000D01*
X143230000Y-89000000D02*
G75*
G03*
X143230000Y-89000000I-6100000J0D01*
G01*
X160962779Y-86590000D02*
X160637221Y-86590000D01*
X160962779Y-87610000D02*
X160637221Y-87610000D01*
X109990000Y-92162779D02*
X109990000Y-91837221D01*
X111010000Y-92162779D02*
X111010000Y-91837221D01*
X110490000Y-112662779D02*
X110490000Y-112337221D01*
X111510000Y-112662779D02*
X111510000Y-112337221D01*
X118334000Y-104230000D02*
X118490000Y-104230000D01*
X120650000Y-104230000D02*
X120806000Y-104230000D01*
X118491392Y-100997665D02*
G75*
G03*
X118334484Y-104230000I1078608J-1672335D01*
G01*
X120648608Y-100997665D02*
G75*
G02*
X120805516Y-104230000I-1078608J-1672335D01*
G01*
X118490163Y-101628870D02*
G75*
G03*
X118490000Y-103710961I1079837J-1041130D01*
G01*
X120649837Y-101628870D02*
G75*
G02*
X120650000Y-103710961I-1079837J-1041130D01*
G01*
X123120000Y-104267221D02*
X123120000Y-104592779D01*
X122100000Y-104267221D02*
X122100000Y-104592779D01*
X122100000Y-100737221D02*
X122100000Y-101062779D01*
X123120000Y-100737221D02*
X123120000Y-101062779D01*
X111990000Y-112662779D02*
X111990000Y-112337221D01*
X113010000Y-112662779D02*
X113010000Y-112337221D01*
X181170000Y-83330000D02*
X183830000Y-83330000D01*
X181170000Y-83270000D02*
X181170000Y-83330000D01*
X183830000Y-83270000D02*
X183830000Y-83330000D01*
X181170000Y-83270000D02*
X183830000Y-83270000D01*
X181170000Y-82000000D02*
X181170000Y-80670000D01*
X181170000Y-80670000D02*
X182500000Y-80670000D01*
X111495001Y-92157778D02*
X111495001Y-91832220D01*
X112515001Y-92157778D02*
X112515001Y-91832220D01*
X114025001Y-92157778D02*
X114025001Y-91832220D01*
X113005001Y-92157778D02*
X113005001Y-91832220D01*
X143840000Y-98610000D02*
X138640000Y-98610000D01*
X143840000Y-106290000D02*
X143840000Y-98610000D01*
X138640000Y-108890000D02*
X138640000Y-98610000D01*
X143840000Y-106290000D02*
X141240000Y-106290000D01*
X141240000Y-106290000D02*
X141240000Y-108890000D01*
X141240000Y-108890000D02*
X138640000Y-108890000D01*
X143840000Y-107560000D02*
X143840000Y-108890000D01*
X143840000Y-108890000D02*
X142510000Y-108890000D01*
X150240000Y-96972779D02*
X150240000Y-96647221D01*
X151260000Y-96972779D02*
X151260000Y-96647221D01*
X145862779Y-89500000D02*
X145537221Y-89500000D01*
X145862779Y-88480000D02*
X145537221Y-88480000D01*
D12*
X150040000Y-115910000D02*
X154290000Y-115910000D01*
X150040000Y-106660000D02*
X150040000Y-115910000D01*
X154290000Y-106660000D02*
X150040000Y-106660000D01*
X180165000Y-111160000D02*
G75*
G03*
X180165000Y-111160000I-13335000J0D01*
G01*
X177500000Y-81000000D02*
X165500000Y-81000000D01*
X177500000Y-85000000D02*
X177500000Y-81000000D01*
X179500000Y-85000000D02*
X177500000Y-85000000D01*
X179500000Y-97000000D02*
X179500000Y-85000000D01*
X165500000Y-97000000D02*
X179500000Y-97000000D01*
X165500000Y-81000000D02*
X165500000Y-97000000D01*
X162850000Y-97500000D02*
X162850000Y-80500000D01*
X180150000Y-97500000D02*
X162850000Y-97500000D01*
X180150000Y-80500000D02*
X180150000Y-97500000D01*
X162850000Y-80500000D02*
X180150000Y-80500000D01*
D11*
X116620000Y-99520000D02*
X116270000Y-99520000D01*
X116620000Y-98630000D02*
X116620000Y-99520000D01*
X116320000Y-98630000D02*
X116620000Y-98630000D01*
X113680000Y-98630000D02*
X109830000Y-98630000D01*
X109830000Y-98630000D02*
X109830000Y-106370000D01*
X109830000Y-106370000D02*
X113680000Y-106370000D01*
X114070000Y-104990000D02*
X114070000Y-100010000D01*
X116620000Y-105480000D02*
X116620000Y-106370000D01*
X116620000Y-105480000D02*
X116270000Y-105480000D01*
X116320000Y-106370000D02*
X116620000Y-106370000D01*
D12*
X107650000Y-90270000D02*
X107650000Y-93025000D01*
X104350000Y-90975000D02*
X104350000Y-93025000D01*
X107791421Y-91000000D02*
G75*
G03*
X107791421Y-91000000I-141421J0D01*
G01*
X105514303Y-111928500D02*
G75*
G03*
X105514303Y-111928500I-89803J0D01*
G01*
X104472000Y-113389000D02*
X107964500Y-113389000D01*
X104472000Y-111611000D02*
X104472000Y-113389000D01*
X107964500Y-111611000D02*
X104472000Y-111611000D01*
X107964500Y-113389000D02*
X107964500Y-111611000D01*
X155753333Y-100427142D02*
X155705714Y-100474761D01*
X155562857Y-100522380D01*
X155467619Y-100522380D01*
X155324761Y-100474761D01*
X155229523Y-100379523D01*
X155181904Y-100284285D01*
X155134285Y-100093809D01*
X155134285Y-99950952D01*
X155181904Y-99760476D01*
X155229523Y-99665238D01*
X155324761Y-99570000D01*
X155467619Y-99522380D01*
X155562857Y-99522380D01*
X155705714Y-99570000D01*
X155753333Y-99617619D01*
X156705714Y-100522380D02*
X156134285Y-100522380D01*
X156420000Y-100522380D02*
X156420000Y-99522380D01*
X156324761Y-99665238D01*
X156229523Y-99760476D01*
X156134285Y-99808095D01*
X114457142Y-110166666D02*
X114504761Y-110214285D01*
X114552380Y-110357142D01*
X114552380Y-110452380D01*
X114504761Y-110595238D01*
X114409523Y-110690476D01*
X114314285Y-110738095D01*
X114123809Y-110785714D01*
X113980952Y-110785714D01*
X113790476Y-110738095D01*
X113695238Y-110690476D01*
X113600000Y-110595238D01*
X113552380Y-110452380D01*
X113552380Y-110357142D01*
X113600000Y-110214285D01*
X113647619Y-110166666D01*
X113552380Y-109261904D02*
X113552380Y-109738095D01*
X114028571Y-109785714D01*
X113980952Y-109738095D01*
X113933333Y-109642857D01*
X113933333Y-109404761D01*
X113980952Y-109309523D01*
X114028571Y-109261904D01*
X114123809Y-109214285D01*
X114361904Y-109214285D01*
X114457142Y-109261904D01*
X114504761Y-109309523D01*
X114552380Y-109404761D01*
X114552380Y-109642857D01*
X114504761Y-109738095D01*
X114457142Y-109785714D01*
X148652380Y-89761904D02*
X149461904Y-89761904D01*
X149557142Y-89714285D01*
X149604761Y-89666666D01*
X149652380Y-89571428D01*
X149652380Y-89380952D01*
X149604761Y-89285714D01*
X149557142Y-89238095D01*
X149461904Y-89190476D01*
X148652380Y-89190476D01*
X149652380Y-88190476D02*
X149652380Y-88761904D01*
X149652380Y-88476190D02*
X148652380Y-88476190D01*
X148795238Y-88571428D01*
X148890476Y-88666666D01*
X148938095Y-88761904D01*
X153315833Y-94057142D02*
X153268214Y-94104761D01*
X153125357Y-94152380D01*
X153030119Y-94152380D01*
X152887261Y-94104761D01*
X152792023Y-94009523D01*
X152744404Y-93914285D01*
X152696785Y-93723809D01*
X152696785Y-93580952D01*
X152744404Y-93390476D01*
X152792023Y-93295238D01*
X152887261Y-93200000D01*
X153030119Y-93152380D01*
X153125357Y-93152380D01*
X153268214Y-93200000D01*
X153315833Y-93247619D01*
X153696785Y-93247619D02*
X153744404Y-93200000D01*
X153839642Y-93152380D01*
X154077738Y-93152380D01*
X154172976Y-93200000D01*
X154220595Y-93247619D01*
X154268214Y-93342857D01*
X154268214Y-93438095D01*
X154220595Y-93580952D01*
X153649166Y-94152380D01*
X154268214Y-94152380D01*
X128499047Y-88978571D02*
X128641904Y-89026190D01*
X128689523Y-89073809D01*
X128737142Y-89169047D01*
X128737142Y-89311904D01*
X128689523Y-89407142D01*
X128641904Y-89454761D01*
X128546666Y-89502380D01*
X128165714Y-89502380D01*
X128165714Y-88502380D01*
X128499047Y-88502380D01*
X128594285Y-88550000D01*
X128641904Y-88597619D01*
X128689523Y-88692857D01*
X128689523Y-88788095D01*
X128641904Y-88883333D01*
X128594285Y-88930952D01*
X128499047Y-88978571D01*
X128165714Y-88978571D01*
X129070476Y-88502380D02*
X129737142Y-88502380D01*
X129070476Y-89502380D01*
X129737142Y-89502380D01*
X130641904Y-89502380D02*
X130070476Y-89502380D01*
X130356190Y-89502380D02*
X130356190Y-88502380D01*
X130260952Y-88645238D01*
X130165714Y-88740476D01*
X130070476Y-88788095D01*
X140559047Y-91611428D02*
X141320952Y-91611428D01*
X140940000Y-91992380D02*
X140940000Y-91230476D01*
X160633333Y-86082142D02*
X160585714Y-86129761D01*
X160442857Y-86177380D01*
X160347619Y-86177380D01*
X160204761Y-86129761D01*
X160109523Y-86034523D01*
X160061904Y-85939285D01*
X160014285Y-85748809D01*
X160014285Y-85605952D01*
X160061904Y-85415476D01*
X160109523Y-85320238D01*
X160204761Y-85225000D01*
X160347619Y-85177380D01*
X160442857Y-85177380D01*
X160585714Y-85225000D01*
X160633333Y-85272619D01*
X160966666Y-85177380D02*
X161585714Y-85177380D01*
X161252380Y-85558333D01*
X161395238Y-85558333D01*
X161490476Y-85605952D01*
X161538095Y-85653571D01*
X161585714Y-85748809D01*
X161585714Y-85986904D01*
X161538095Y-86082142D01*
X161490476Y-86129761D01*
X161395238Y-86177380D01*
X161109523Y-86177380D01*
X161014285Y-86129761D01*
X160966666Y-86082142D01*
X110857142Y-89266666D02*
X110904761Y-89314285D01*
X110952380Y-89457142D01*
X110952380Y-89552380D01*
X110904761Y-89695238D01*
X110809523Y-89790476D01*
X110714285Y-89838095D01*
X110523809Y-89885714D01*
X110380952Y-89885714D01*
X110190476Y-89838095D01*
X110095238Y-89790476D01*
X110000000Y-89695238D01*
X109952380Y-89552380D01*
X109952380Y-89457142D01*
X110000000Y-89314285D01*
X110047619Y-89266666D01*
X110285714Y-88409523D02*
X110952380Y-88409523D01*
X109904761Y-88647619D02*
X110619047Y-88885714D01*
X110619047Y-88266666D01*
X111347142Y-110186666D02*
X111394761Y-110234285D01*
X111442380Y-110377142D01*
X111442380Y-110472380D01*
X111394761Y-110615238D01*
X111299523Y-110710476D01*
X111204285Y-110758095D01*
X111013809Y-110805714D01*
X110870952Y-110805714D01*
X110680476Y-110758095D01*
X110585238Y-110710476D01*
X110490000Y-110615238D01*
X110442380Y-110472380D01*
X110442380Y-110377142D01*
X110490000Y-110234285D01*
X110537619Y-110186666D01*
X110442380Y-109329523D02*
X110442380Y-109520000D01*
X110490000Y-109615238D01*
X110537619Y-109662857D01*
X110680476Y-109758095D01*
X110870952Y-109805714D01*
X111251904Y-109805714D01*
X111347142Y-109758095D01*
X111394761Y-109710476D01*
X111442380Y-109615238D01*
X111442380Y-109424761D01*
X111394761Y-109329523D01*
X111347142Y-109281904D01*
X111251904Y-109234285D01*
X111013809Y-109234285D01*
X110918571Y-109281904D01*
X110870952Y-109329523D01*
X110823333Y-109424761D01*
X110823333Y-109615238D01*
X110870952Y-109710476D01*
X110918571Y-109758095D01*
X111013809Y-109805714D01*
X117062380Y-103408095D02*
X116062380Y-103408095D01*
X116062380Y-103170000D01*
X116110000Y-103027142D01*
X116205238Y-102931904D01*
X116300476Y-102884285D01*
X116490952Y-102836666D01*
X116633809Y-102836666D01*
X116824285Y-102884285D01*
X116919523Y-102931904D01*
X117014761Y-103027142D01*
X117062380Y-103170000D01*
X117062380Y-103408095D01*
X117062380Y-101884285D02*
X117062380Y-102455714D01*
X117062380Y-102170000D02*
X116062380Y-102170000D01*
X116205238Y-102265238D01*
X116300476Y-102360476D01*
X116348095Y-102455714D01*
X124492380Y-104596666D02*
X124016190Y-104930000D01*
X124492380Y-105168095D02*
X123492380Y-105168095D01*
X123492380Y-104787142D01*
X123540000Y-104691904D01*
X123587619Y-104644285D01*
X123682857Y-104596666D01*
X123825714Y-104596666D01*
X123920952Y-104644285D01*
X123968571Y-104691904D01*
X124016190Y-104787142D01*
X124016190Y-105168095D01*
X124492380Y-103644285D02*
X124492380Y-104215714D01*
X124492380Y-103930000D02*
X123492380Y-103930000D01*
X123635238Y-104025238D01*
X123730476Y-104120476D01*
X123778095Y-104215714D01*
X124492380Y-101066666D02*
X124016190Y-101400000D01*
X124492380Y-101638095D02*
X123492380Y-101638095D01*
X123492380Y-101257142D01*
X123540000Y-101161904D01*
X123587619Y-101114285D01*
X123682857Y-101066666D01*
X123825714Y-101066666D01*
X123920952Y-101114285D01*
X123968571Y-101161904D01*
X124016190Y-101257142D01*
X124016190Y-101638095D01*
X123587619Y-100685714D02*
X123540000Y-100638095D01*
X123492380Y-100542857D01*
X123492380Y-100304761D01*
X123540000Y-100209523D01*
X123587619Y-100161904D01*
X123682857Y-100114285D01*
X123778095Y-100114285D01*
X123920952Y-100161904D01*
X124492380Y-100733333D01*
X124492380Y-100114285D01*
X112962380Y-110196666D02*
X112486190Y-110530000D01*
X112962380Y-110768095D02*
X111962380Y-110768095D01*
X111962380Y-110387142D01*
X112010000Y-110291904D01*
X112057619Y-110244285D01*
X112152857Y-110196666D01*
X112295714Y-110196666D01*
X112390952Y-110244285D01*
X112438571Y-110291904D01*
X112486190Y-110387142D01*
X112486190Y-110768095D01*
X111962380Y-109863333D02*
X111962380Y-109244285D01*
X112343333Y-109577619D01*
X112343333Y-109434761D01*
X112390952Y-109339523D01*
X112438571Y-109291904D01*
X112533809Y-109244285D01*
X112771904Y-109244285D01*
X112867142Y-109291904D01*
X112914761Y-109339523D01*
X112962380Y-109434761D01*
X112962380Y-109720476D01*
X112914761Y-109815714D01*
X112867142Y-109863333D01*
X182156666Y-84052380D02*
X182156666Y-84766666D01*
X182109047Y-84909523D01*
X182013809Y-85004761D01*
X181870952Y-85052380D01*
X181775714Y-85052380D01*
X183156666Y-85052380D02*
X182585238Y-85052380D01*
X182870952Y-85052380D02*
X182870952Y-84052380D01*
X182775714Y-84195238D01*
X182680476Y-84290476D01*
X182585238Y-84338095D01*
X112452380Y-89266666D02*
X111976190Y-89600000D01*
X112452380Y-89838095D02*
X111452380Y-89838095D01*
X111452380Y-89457142D01*
X111500000Y-89361904D01*
X111547619Y-89314285D01*
X111642857Y-89266666D01*
X111785714Y-89266666D01*
X111880952Y-89314285D01*
X111928571Y-89361904D01*
X111976190Y-89457142D01*
X111976190Y-89838095D01*
X111785714Y-88409523D02*
X112452380Y-88409523D01*
X111404761Y-88647619D02*
X112119047Y-88885714D01*
X112119047Y-88266666D01*
X113952380Y-89266666D02*
X113476190Y-89600000D01*
X113952380Y-89838095D02*
X112952380Y-89838095D01*
X112952380Y-89457142D01*
X113000000Y-89361904D01*
X113047619Y-89314285D01*
X113142857Y-89266666D01*
X113285714Y-89266666D01*
X113380952Y-89314285D01*
X113428571Y-89361904D01*
X113476190Y-89457142D01*
X113476190Y-89838095D01*
X112952380Y-88361904D02*
X112952380Y-88838095D01*
X113428571Y-88885714D01*
X113380952Y-88838095D01*
X113333333Y-88742857D01*
X113333333Y-88504761D01*
X113380952Y-88409523D01*
X113428571Y-88361904D01*
X113523809Y-88314285D01*
X113761904Y-88314285D01*
X113857142Y-88361904D01*
X113904761Y-88409523D01*
X113952380Y-88504761D01*
X113952380Y-88742857D01*
X113904761Y-88838095D01*
X113857142Y-88885714D01*
X140906666Y-109342380D02*
X140906666Y-110056666D01*
X140859047Y-110199523D01*
X140763809Y-110294761D01*
X140620952Y-110342380D01*
X140525714Y-110342380D01*
X141287619Y-109342380D02*
X141906666Y-109342380D01*
X141573333Y-109723333D01*
X141716190Y-109723333D01*
X141811428Y-109770952D01*
X141859047Y-109818571D01*
X141906666Y-109913809D01*
X141906666Y-110151904D01*
X141859047Y-110247142D01*
X141811428Y-110294761D01*
X141716190Y-110342380D01*
X141430476Y-110342380D01*
X141335238Y-110294761D01*
X141287619Y-110247142D01*
X148763333Y-97197142D02*
X148715714Y-97244761D01*
X148572857Y-97292380D01*
X148477619Y-97292380D01*
X148334761Y-97244761D01*
X148239523Y-97149523D01*
X148191904Y-97054285D01*
X148144285Y-96863809D01*
X148144285Y-96720952D01*
X148191904Y-96530476D01*
X148239523Y-96435238D01*
X148334761Y-96340000D01*
X148477619Y-96292380D01*
X148572857Y-96292380D01*
X148715714Y-96340000D01*
X148763333Y-96387619D01*
X149096666Y-96292380D02*
X149763333Y-96292380D01*
X149334761Y-97292380D01*
X145558333Y-88102380D02*
X145225000Y-87626190D01*
X144986904Y-88102380D02*
X144986904Y-87102380D01*
X145367857Y-87102380D01*
X145463095Y-87150000D01*
X145510714Y-87197619D01*
X145558333Y-87292857D01*
X145558333Y-87435714D01*
X145510714Y-87530952D01*
X145463095Y-87578571D01*
X145367857Y-87626190D01*
X144986904Y-87626190D01*
X146415476Y-87102380D02*
X146225000Y-87102380D01*
X146129761Y-87150000D01*
X146082142Y-87197619D01*
X145986904Y-87340476D01*
X145939285Y-87530952D01*
X145939285Y-87911904D01*
X145986904Y-88007142D01*
X146034523Y-88054761D01*
X146129761Y-88102380D01*
X146320238Y-88102380D01*
X146415476Y-88054761D01*
X146463095Y-88007142D01*
X146510714Y-87911904D01*
X146510714Y-87673809D01*
X146463095Y-87578571D01*
X146415476Y-87530952D01*
X146320238Y-87483333D01*
X146129761Y-87483333D01*
X146034523Y-87530952D01*
X145986904Y-87578571D01*
X145939285Y-87673809D01*
X147214285Y-111178571D02*
X147357142Y-111226190D01*
X147404761Y-111273809D01*
X147452380Y-111369047D01*
X147452380Y-111511904D01*
X147404761Y-111607142D01*
X147357142Y-111654761D01*
X147261904Y-111702380D01*
X146880952Y-111702380D01*
X146880952Y-110702380D01*
X147214285Y-110702380D01*
X147309523Y-110750000D01*
X147357142Y-110797619D01*
X147404761Y-110892857D01*
X147404761Y-110988095D01*
X147357142Y-111083333D01*
X147309523Y-111130952D01*
X147214285Y-111178571D01*
X146880952Y-111178571D01*
X147738095Y-110702380D02*
X148309523Y-110702380D01*
X148023809Y-111702380D02*
X148023809Y-110702380D01*
X149166666Y-111702380D02*
X148595238Y-111702380D01*
X148880952Y-111702380D02*
X148880952Y-110702380D01*
X148785714Y-110845238D01*
X148690476Y-110940476D01*
X148595238Y-110988095D01*
X160620476Y-89452380D02*
X160620476Y-88452380D01*
X160953809Y-89166666D01*
X161287142Y-88452380D01*
X161287142Y-89452380D01*
X162287142Y-89452380D02*
X161715714Y-89452380D01*
X162001428Y-89452380D02*
X162001428Y-88452380D01*
X161906190Y-88595238D01*
X161810952Y-88690476D01*
X161715714Y-88738095D01*
X115404761Y-103833333D02*
X115452380Y-103690476D01*
X115452380Y-103452380D01*
X115404761Y-103357142D01*
X115357142Y-103309523D01*
X115261904Y-103261904D01*
X115166666Y-103261904D01*
X115071428Y-103309523D01*
X115023809Y-103357142D01*
X114976190Y-103452380D01*
X114928571Y-103642857D01*
X114880952Y-103738095D01*
X114833333Y-103785714D01*
X114738095Y-103833333D01*
X114642857Y-103833333D01*
X114547619Y-103785714D01*
X114500000Y-103738095D01*
X114452380Y-103642857D01*
X114452380Y-103404761D01*
X114500000Y-103261904D01*
X114452380Y-102928571D02*
X115452380Y-102690476D01*
X114738095Y-102500000D01*
X115452380Y-102309523D01*
X114452380Y-102071428D01*
X115452380Y-101166666D02*
X115452380Y-101738095D01*
X115452380Y-101452380D02*
X114452380Y-101452380D01*
X114595238Y-101547619D01*
X114690476Y-101642857D01*
X114738095Y-101738095D01*
X108152380Y-92761904D02*
X108961904Y-92761904D01*
X109057142Y-92714285D01*
X109104761Y-92666666D01*
X109152380Y-92571428D01*
X109152380Y-92380952D01*
X109104761Y-92285714D01*
X109057142Y-92238095D01*
X108961904Y-92190476D01*
X108152380Y-92190476D01*
X108247619Y-91761904D02*
X108200000Y-91714285D01*
X108152380Y-91619047D01*
X108152380Y-91380952D01*
X108200000Y-91285714D01*
X108247619Y-91238095D01*
X108342857Y-91190476D01*
X108438095Y-91190476D01*
X108580952Y-91238095D01*
X109152380Y-91809523D01*
X109152380Y-91190476D01*
X108252380Y-113261904D02*
X109061904Y-113261904D01*
X109157142Y-113214285D01*
X109204761Y-113166666D01*
X109252380Y-113071428D01*
X109252380Y-112880952D01*
X109204761Y-112785714D01*
X109157142Y-112738095D01*
X109061904Y-112690476D01*
X108252380Y-112690476D01*
X108252380Y-112309523D02*
X108252380Y-111690476D01*
X108633333Y-112023809D01*
X108633333Y-111880952D01*
X108680952Y-111785714D01*
X108728571Y-111738095D01*
X108823809Y-111690476D01*
X109061904Y-111690476D01*
X109157142Y-111738095D01*
X109204761Y-111785714D01*
X109252380Y-111880952D01*
X109252380Y-112166666D01*
X109204761Y-112261904D01*
X109157142Y-112309523D01*
M02*
