G04 #@! TF.GenerationSoftware,KiCad,Pcbnew,5.1.8-db9833491~87~ubuntu20.04.1*
G04 #@! TF.CreationDate,2020-11-19T10:24:25+01:00*
G04 #@! TF.ProjectId,malory,6d616c6f-7279-42e6-9b69-6361645f7063,v1.0*
G04 #@! TF.SameCoordinates,Original*
G04 #@! TF.FileFunction,Copper,L1,Top*
G04 #@! TF.FilePolarity,Positive*
%FSLAX46Y46*%
G04 Gerber Fmt 4.6, Leading zero omitted, Abs format (unit mm)*
G04 Created by KiCad (PCBNEW 5.1.8-db9833491~87~ubuntu20.04.1) date 2020-11-19 10:24:25*
%MOMM*%
%LPD*%
G01*
G04 APERTURE LIST*
G04 #@! TA.AperFunction,SMDPad,CuDef*
%ADD10R,0.450000X1.450000*%
G04 #@! TD*
G04 #@! TA.AperFunction,ComponentPad*
%ADD11R,2.000000X2.000000*%
G04 #@! TD*
G04 #@! TA.AperFunction,ComponentPad*
%ADD12C,2.000000*%
G04 #@! TD*
G04 #@! TA.AperFunction,ComponentPad*
%ADD13R,1.800000X1.800000*%
G04 #@! TD*
G04 #@! TA.AperFunction,ComponentPad*
%ADD14C,1.800000*%
G04 #@! TD*
G04 #@! TA.AperFunction,ComponentPad*
%ADD15R,1.700000X1.700000*%
G04 #@! TD*
G04 #@! TA.AperFunction,ComponentPad*
%ADD16O,1.700000X1.700000*%
G04 #@! TD*
G04 #@! TA.AperFunction,ComponentPad*
%ADD17C,2.286000*%
G04 #@! TD*
G04 #@! TA.AperFunction,SMDPad,CuDef*
%ADD18O,1.800000X0.800000*%
G04 #@! TD*
G04 #@! TA.AperFunction,ComponentPad*
%ADD19C,2.200000*%
G04 #@! TD*
G04 #@! TA.AperFunction,ComponentPad*
%ADD20C,1.700000*%
G04 #@! TD*
G04 #@! TA.AperFunction,SMDPad,CuDef*
%ADD21R,0.450000X0.630000*%
G04 #@! TD*
G04 #@! TA.AperFunction,SMDPad,CuDef*
%ADD22R,1.300000X0.650000*%
G04 #@! TD*
G04 #@! TA.AperFunction,SMDPad,CuDef*
%ADD23C,0.100000*%
G04 #@! TD*
G04 #@! TA.AperFunction,ViaPad*
%ADD24C,0.800000*%
G04 #@! TD*
G04 #@! TA.AperFunction,ViaPad*
%ADD25C,0.600000*%
G04 #@! TD*
G04 #@! TA.AperFunction,Conductor*
%ADD26C,0.250000*%
G04 #@! TD*
G04 #@! TA.AperFunction,Conductor*
%ADD27C,0.750000*%
G04 #@! TD*
G04 #@! TA.AperFunction,Conductor*
%ADD28C,0.500000*%
G04 #@! TD*
G04 #@! TA.AperFunction,Conductor*
%ADD29C,0.400000*%
G04 #@! TD*
G04 APERTURE END LIST*
G04 #@! TA.AperFunction,SMDPad,CuDef*
G36*
G01*
X160070000Y-95845000D02*
X160070000Y-97895000D01*
G75*
G02*
X159820000Y-98145000I-250000J0D01*
G01*
X158245000Y-98145000D01*
G75*
G02*
X157995000Y-97895000I0J250000D01*
G01*
X157995000Y-95845000D01*
G75*
G02*
X158245000Y-95595000I250000J0D01*
G01*
X159820000Y-95595000D01*
G75*
G02*
X160070000Y-95845000I0J-250000D01*
G01*
G37*
G04 #@! TD.AperFunction*
G04 #@! TA.AperFunction,SMDPad,CuDef*
G36*
G01*
X153845000Y-95845000D02*
X153845000Y-97895000D01*
G75*
G02*
X153595000Y-98145000I-250000J0D01*
G01*
X152020000Y-98145000D01*
G75*
G02*
X151770000Y-97895000I0J250000D01*
G01*
X151770000Y-95845000D01*
G75*
G02*
X152020000Y-95595000I250000J0D01*
G01*
X153595000Y-95595000D01*
G75*
G02*
X153845000Y-95845000I0J-250000D01*
G01*
G37*
G04 #@! TD.AperFunction*
G04 #@! TA.AperFunction,SMDPad,CuDef*
G36*
G01*
X113843750Y-112850000D02*
X114356250Y-112850000D01*
G75*
G02*
X114575000Y-113068750I0J-218750D01*
G01*
X114575000Y-113506250D01*
G75*
G02*
X114356250Y-113725000I-218750J0D01*
G01*
X113843750Y-113725000D01*
G75*
G02*
X113625000Y-113506250I0J218750D01*
G01*
X113625000Y-113068750D01*
G75*
G02*
X113843750Y-112850000I218750J0D01*
G01*
G37*
G04 #@! TD.AperFunction*
G04 #@! TA.AperFunction,SMDPad,CuDef*
G36*
G01*
X113843750Y-111275000D02*
X114356250Y-111275000D01*
G75*
G02*
X114575000Y-111493750I0J-218750D01*
G01*
X114575000Y-111931250D01*
G75*
G02*
X114356250Y-112150000I-218750J0D01*
G01*
X113843750Y-112150000D01*
G75*
G02*
X113625000Y-111931250I0J218750D01*
G01*
X113625000Y-111493750D01*
G75*
G02*
X113843750Y-111275000I218750J0D01*
G01*
G37*
G04 #@! TD.AperFunction*
D10*
X150575000Y-91950000D03*
X151225000Y-91950000D03*
X151875000Y-91950000D03*
X152525000Y-91950000D03*
X153175000Y-91950000D03*
X153825000Y-91950000D03*
X154475000Y-91950000D03*
X155125000Y-91950000D03*
X155775000Y-91950000D03*
X156425000Y-91950000D03*
X156425000Y-86050000D03*
X155775000Y-86050000D03*
X155125000Y-86050000D03*
X154475000Y-86050000D03*
X153825000Y-86050000D03*
X153175000Y-86050000D03*
X152525000Y-86050000D03*
X151875000Y-86050000D03*
X151225000Y-86050000D03*
X150575000Y-86050000D03*
G04 #@! TA.AperFunction,SMDPad,CuDef*
G36*
G01*
X154687500Y-93956250D02*
X154687500Y-93443750D01*
G75*
G02*
X154906250Y-93225000I218750J0D01*
G01*
X155343750Y-93225000D01*
G75*
G02*
X155562500Y-93443750I0J-218750D01*
G01*
X155562500Y-93956250D01*
G75*
G02*
X155343750Y-94175000I-218750J0D01*
G01*
X154906250Y-94175000D01*
G75*
G02*
X154687500Y-93956250I0J218750D01*
G01*
G37*
G04 #@! TD.AperFunction*
G04 #@! TA.AperFunction,SMDPad,CuDef*
G36*
G01*
X156262500Y-93956250D02*
X156262500Y-93443750D01*
G75*
G02*
X156481250Y-93225000I218750J0D01*
G01*
X156918750Y-93225000D01*
G75*
G02*
X157137500Y-93443750I0J-218750D01*
G01*
X157137500Y-93956250D01*
G75*
G02*
X156918750Y-94175000I-218750J0D01*
G01*
X156481250Y-94175000D01*
G75*
G02*
X156262500Y-93956250I0J218750D01*
G01*
G37*
G04 #@! TD.AperFunction*
D11*
X140930000Y-89000000D03*
D12*
X133330000Y-89000000D03*
G04 #@! TA.AperFunction,SMDPad,CuDef*
G36*
G01*
X160450000Y-86843750D02*
X160450000Y-87356250D01*
G75*
G02*
X160231250Y-87575000I-218750J0D01*
G01*
X159793750Y-87575000D01*
G75*
G02*
X159575000Y-87356250I0J218750D01*
G01*
X159575000Y-86843750D01*
G75*
G02*
X159793750Y-86625000I218750J0D01*
G01*
X160231250Y-86625000D01*
G75*
G02*
X160450000Y-86843750I0J-218750D01*
G01*
G37*
G04 #@! TD.AperFunction*
G04 #@! TA.AperFunction,SMDPad,CuDef*
G36*
G01*
X162025000Y-86843750D02*
X162025000Y-87356250D01*
G75*
G02*
X161806250Y-87575000I-218750J0D01*
G01*
X161368750Y-87575000D01*
G75*
G02*
X161150000Y-87356250I0J218750D01*
G01*
X161150000Y-86843750D01*
G75*
G02*
X161368750Y-86625000I218750J0D01*
G01*
X161806250Y-86625000D01*
G75*
G02*
X162025000Y-86843750I0J-218750D01*
G01*
G37*
G04 #@! TD.AperFunction*
G04 #@! TA.AperFunction,SMDPad,CuDef*
G36*
G01*
X110756250Y-93225000D02*
X110243750Y-93225000D01*
G75*
G02*
X110025000Y-93006250I0J218750D01*
G01*
X110025000Y-92568750D01*
G75*
G02*
X110243750Y-92350000I218750J0D01*
G01*
X110756250Y-92350000D01*
G75*
G02*
X110975000Y-92568750I0J-218750D01*
G01*
X110975000Y-93006250D01*
G75*
G02*
X110756250Y-93225000I-218750J0D01*
G01*
G37*
G04 #@! TD.AperFunction*
G04 #@! TA.AperFunction,SMDPad,CuDef*
G36*
G01*
X110756250Y-91650000D02*
X110243750Y-91650000D01*
G75*
G02*
X110025000Y-91431250I0J218750D01*
G01*
X110025000Y-90993750D01*
G75*
G02*
X110243750Y-90775000I218750J0D01*
G01*
X110756250Y-90775000D01*
G75*
G02*
X110975000Y-90993750I0J-218750D01*
G01*
X110975000Y-91431250D01*
G75*
G02*
X110756250Y-91650000I-218750J0D01*
G01*
G37*
G04 #@! TD.AperFunction*
G04 #@! TA.AperFunction,SMDPad,CuDef*
G36*
G01*
X111256250Y-113725000D02*
X110743750Y-113725000D01*
G75*
G02*
X110525000Y-113506250I0J218750D01*
G01*
X110525000Y-113068750D01*
G75*
G02*
X110743750Y-112850000I218750J0D01*
G01*
X111256250Y-112850000D01*
G75*
G02*
X111475000Y-113068750I0J-218750D01*
G01*
X111475000Y-113506250D01*
G75*
G02*
X111256250Y-113725000I-218750J0D01*
G01*
G37*
G04 #@! TD.AperFunction*
G04 #@! TA.AperFunction,SMDPad,CuDef*
G36*
G01*
X111256250Y-112150000D02*
X110743750Y-112150000D01*
G75*
G02*
X110525000Y-111931250I0J218750D01*
G01*
X110525000Y-111493750D01*
G75*
G02*
X110743750Y-111275000I218750J0D01*
G01*
X111256250Y-111275000D01*
G75*
G02*
X111475000Y-111493750I0J-218750D01*
G01*
X111475000Y-111931250D01*
G75*
G02*
X111256250Y-112150000I-218750J0D01*
G01*
G37*
G04 #@! TD.AperFunction*
D13*
X119570000Y-105210000D03*
D14*
X119570000Y-102670000D03*
X119570000Y-100130000D03*
G04 #@! TA.AperFunction,SMDPad,CuDef*
G36*
G01*
X122353750Y-103205000D02*
X122866250Y-103205000D01*
G75*
G02*
X123085000Y-103423750I0J-218750D01*
G01*
X123085000Y-103861250D01*
G75*
G02*
X122866250Y-104080000I-218750J0D01*
G01*
X122353750Y-104080000D01*
G75*
G02*
X122135000Y-103861250I0J218750D01*
G01*
X122135000Y-103423750D01*
G75*
G02*
X122353750Y-103205000I218750J0D01*
G01*
G37*
G04 #@! TD.AperFunction*
G04 #@! TA.AperFunction,SMDPad,CuDef*
G36*
G01*
X122353750Y-104780000D02*
X122866250Y-104780000D01*
G75*
G02*
X123085000Y-104998750I0J-218750D01*
G01*
X123085000Y-105436250D01*
G75*
G02*
X122866250Y-105655000I-218750J0D01*
G01*
X122353750Y-105655000D01*
G75*
G02*
X122135000Y-105436250I0J218750D01*
G01*
X122135000Y-104998750D01*
G75*
G02*
X122353750Y-104780000I218750J0D01*
G01*
G37*
G04 #@! TD.AperFunction*
G04 #@! TA.AperFunction,SMDPad,CuDef*
G36*
G01*
X122353750Y-101250000D02*
X122866250Y-101250000D01*
G75*
G02*
X123085000Y-101468750I0J-218750D01*
G01*
X123085000Y-101906250D01*
G75*
G02*
X122866250Y-102125000I-218750J0D01*
G01*
X122353750Y-102125000D01*
G75*
G02*
X122135000Y-101906250I0J218750D01*
G01*
X122135000Y-101468750D01*
G75*
G02*
X122353750Y-101250000I218750J0D01*
G01*
G37*
G04 #@! TD.AperFunction*
G04 #@! TA.AperFunction,SMDPad,CuDef*
G36*
G01*
X122353750Y-99675000D02*
X122866250Y-99675000D01*
G75*
G02*
X123085000Y-99893750I0J-218750D01*
G01*
X123085000Y-100331250D01*
G75*
G02*
X122866250Y-100550000I-218750J0D01*
G01*
X122353750Y-100550000D01*
G75*
G02*
X122135000Y-100331250I0J218750D01*
G01*
X122135000Y-99893750D01*
G75*
G02*
X122353750Y-99675000I218750J0D01*
G01*
G37*
G04 #@! TD.AperFunction*
G04 #@! TA.AperFunction,SMDPad,CuDef*
G36*
G01*
X112756250Y-113725000D02*
X112243750Y-113725000D01*
G75*
G02*
X112025000Y-113506250I0J218750D01*
G01*
X112025000Y-113068750D01*
G75*
G02*
X112243750Y-112850000I218750J0D01*
G01*
X112756250Y-112850000D01*
G75*
G02*
X112975000Y-113068750I0J-218750D01*
G01*
X112975000Y-113506250D01*
G75*
G02*
X112756250Y-113725000I-218750J0D01*
G01*
G37*
G04 #@! TD.AperFunction*
G04 #@! TA.AperFunction,SMDPad,CuDef*
G36*
G01*
X112756250Y-112150000D02*
X112243750Y-112150000D01*
G75*
G02*
X112025000Y-111931250I0J218750D01*
G01*
X112025000Y-111493750D01*
G75*
G02*
X112243750Y-111275000I218750J0D01*
G01*
X112756250Y-111275000D01*
G75*
G02*
X112975000Y-111493750I0J-218750D01*
G01*
X112975000Y-111931250D01*
G75*
G02*
X112756250Y-112150000I-218750J0D01*
G01*
G37*
G04 #@! TD.AperFunction*
D15*
X182500000Y-81610000D03*
G04 #@! TA.AperFunction,SMDPad,CuDef*
G36*
G01*
X112261251Y-93219999D02*
X111748751Y-93219999D01*
G75*
G02*
X111530001Y-93001249I0J218750D01*
G01*
X111530001Y-92563749D01*
G75*
G02*
X111748751Y-92344999I218750J0D01*
G01*
X112261251Y-92344999D01*
G75*
G02*
X112480001Y-92563749I0J-218750D01*
G01*
X112480001Y-93001249D01*
G75*
G02*
X112261251Y-93219999I-218750J0D01*
G01*
G37*
G04 #@! TD.AperFunction*
G04 #@! TA.AperFunction,SMDPad,CuDef*
G36*
G01*
X112261251Y-91644999D02*
X111748751Y-91644999D01*
G75*
G02*
X111530001Y-91426249I0J218750D01*
G01*
X111530001Y-90988749D01*
G75*
G02*
X111748751Y-90769999I218750J0D01*
G01*
X112261251Y-90769999D01*
G75*
G02*
X112480001Y-90988749I0J-218750D01*
G01*
X112480001Y-91426249D01*
G75*
G02*
X112261251Y-91644999I-218750J0D01*
G01*
G37*
G04 #@! TD.AperFunction*
G04 #@! TA.AperFunction,SMDPad,CuDef*
G36*
G01*
X113771251Y-91644999D02*
X113258751Y-91644999D01*
G75*
G02*
X113040001Y-91426249I0J218750D01*
G01*
X113040001Y-90988749D01*
G75*
G02*
X113258751Y-90769999I218750J0D01*
G01*
X113771251Y-90769999D01*
G75*
G02*
X113990001Y-90988749I0J-218750D01*
G01*
X113990001Y-91426249D01*
G75*
G02*
X113771251Y-91644999I-218750J0D01*
G01*
G37*
G04 #@! TD.AperFunction*
G04 #@! TA.AperFunction,SMDPad,CuDef*
G36*
G01*
X113771251Y-93219999D02*
X113258751Y-93219999D01*
G75*
G02*
X113040001Y-93001249I0J218750D01*
G01*
X113040001Y-92563749D01*
G75*
G02*
X113258751Y-92344999I218750J0D01*
G01*
X113771251Y-92344999D01*
G75*
G02*
X113990001Y-92563749I0J-218750D01*
G01*
X113990001Y-93001249D01*
G75*
G02*
X113771251Y-93219999I-218750J0D01*
G01*
G37*
G04 #@! TD.AperFunction*
X142510000Y-107560000D03*
D16*
X139970000Y-107560000D03*
X142510000Y-105020000D03*
X139970000Y-105020000D03*
X142510000Y-102480000D03*
X139970000Y-102480000D03*
X142510000Y-99940000D03*
X139970000Y-99940000D03*
G04 #@! TA.AperFunction,SMDPad,CuDef*
G36*
G01*
X151006250Y-98035000D02*
X150493750Y-98035000D01*
G75*
G02*
X150275000Y-97816250I0J218750D01*
G01*
X150275000Y-97378750D01*
G75*
G02*
X150493750Y-97160000I218750J0D01*
G01*
X151006250Y-97160000D01*
G75*
G02*
X151225000Y-97378750I0J-218750D01*
G01*
X151225000Y-97816250D01*
G75*
G02*
X151006250Y-98035000I-218750J0D01*
G01*
G37*
G04 #@! TD.AperFunction*
G04 #@! TA.AperFunction,SMDPad,CuDef*
G36*
G01*
X151006250Y-96460000D02*
X150493750Y-96460000D01*
G75*
G02*
X150275000Y-96241250I0J218750D01*
G01*
X150275000Y-95803750D01*
G75*
G02*
X150493750Y-95585000I218750J0D01*
G01*
X151006250Y-95585000D01*
G75*
G02*
X151225000Y-95803750I0J-218750D01*
G01*
X151225000Y-96241250D01*
G75*
G02*
X151006250Y-96460000I-218750J0D01*
G01*
G37*
G04 #@! TD.AperFunction*
G04 #@! TA.AperFunction,SMDPad,CuDef*
G36*
G01*
X146925000Y-88733750D02*
X146925000Y-89246250D01*
G75*
G02*
X146706250Y-89465000I-218750J0D01*
G01*
X146268750Y-89465000D01*
G75*
G02*
X146050000Y-89246250I0J218750D01*
G01*
X146050000Y-88733750D01*
G75*
G02*
X146268750Y-88515000I218750J0D01*
G01*
X146706250Y-88515000D01*
G75*
G02*
X146925000Y-88733750I0J-218750D01*
G01*
G37*
G04 #@! TD.AperFunction*
G04 #@! TA.AperFunction,SMDPad,CuDef*
G36*
G01*
X145350000Y-88733750D02*
X145350000Y-89246250D01*
G75*
G02*
X145131250Y-89465000I-218750J0D01*
G01*
X144693750Y-89465000D01*
G75*
G02*
X144475000Y-89246250I0J218750D01*
G01*
X144475000Y-88733750D01*
G75*
G02*
X144693750Y-88515000I218750J0D01*
G01*
X145131250Y-88515000D01*
G75*
G02*
X145350000Y-88733750I0J-218750D01*
G01*
G37*
G04 #@! TD.AperFunction*
D17*
X171910000Y-111160000D03*
X151590000Y-111160000D03*
D18*
X179550000Y-83110000D03*
X179550000Y-81610000D03*
X163450000Y-95985000D03*
X163450000Y-94715000D03*
X163450000Y-93445000D03*
X163450000Y-92175000D03*
X163450000Y-90905000D03*
X163450000Y-89635000D03*
X163450000Y-88365000D03*
X163450000Y-87095000D03*
X163450000Y-85825000D03*
X163450000Y-84555000D03*
X163450000Y-83285000D03*
X163450000Y-82015000D03*
D19*
X115000000Y-99000000D03*
X115000000Y-106000000D03*
D20*
X112500000Y-100250000D03*
X112500000Y-104750000D03*
D21*
X106950000Y-90660000D03*
X106000000Y-90660000D03*
X105050000Y-90660000D03*
X105050000Y-93340000D03*
X106000000Y-93340000D03*
X106950000Y-93340000D03*
D22*
X105350000Y-92325000D03*
X105350000Y-92325000D03*
X105350000Y-91675000D03*
X105350000Y-91675000D03*
G04 #@! TA.AperFunction,SMDPad,CuDef*
D23*
G36*
X107350000Y-113125000D02*
G01*
X107350000Y-112875000D01*
X107900000Y-112875000D01*
X107900000Y-113125000D01*
X107350000Y-113125000D01*
G37*
G04 #@! TD.AperFunction*
G04 #@! TA.AperFunction,SMDPad,CuDef*
G36*
X104600000Y-113125000D02*
G01*
X104600000Y-112875000D01*
X105150000Y-112875000D01*
X105150000Y-113125000D01*
X104600000Y-113125000D01*
G37*
G04 #@! TD.AperFunction*
G04 #@! TA.AperFunction,SMDPad,CuDef*
G36*
X107350000Y-112625000D02*
G01*
X107350000Y-112375000D01*
X107900000Y-112375000D01*
X107900000Y-112625000D01*
X107350000Y-112625000D01*
G37*
G04 #@! TD.AperFunction*
G04 #@! TA.AperFunction,SMDPad,CuDef*
G36*
X104600000Y-112625000D02*
G01*
X104600000Y-112375000D01*
X105150000Y-112375000D01*
X105150000Y-112625000D01*
X104600000Y-112625000D01*
G37*
G04 #@! TD.AperFunction*
G04 #@! TA.AperFunction,SMDPad,CuDef*
G36*
X107350000Y-112125000D02*
G01*
X107350000Y-111875000D01*
X107900000Y-111875000D01*
X107900000Y-112125000D01*
X107350000Y-112125000D01*
G37*
G04 #@! TD.AperFunction*
G04 #@! TA.AperFunction,SMDPad,CuDef*
G36*
X104600000Y-112150000D02*
G01*
X104600000Y-111850000D01*
X105150000Y-111850000D01*
X105150000Y-112150000D01*
X104600000Y-112150000D01*
G37*
G04 #@! TD.AperFunction*
D24*
X161950000Y-82020000D03*
X161939999Y-95980000D03*
D25*
X109500000Y-91285010D03*
D24*
X150750000Y-98630000D03*
D25*
X106517247Y-91429808D03*
X105630000Y-112749998D03*
D24*
X110999996Y-114325000D03*
X154450000Y-96870004D03*
X178040000Y-83119996D03*
X158950000Y-87100000D03*
X154475000Y-90600000D03*
X157750000Y-93700000D03*
X114100000Y-114325000D03*
D25*
X153175000Y-84000000D03*
X153175000Y-88000000D03*
X153825000Y-88800000D03*
X153825000Y-84700000D03*
X154475000Y-84000000D03*
X154475000Y-89675000D03*
X112000000Y-90259998D03*
X111200000Y-94200000D03*
X112100000Y-94200000D03*
X114490004Y-91210000D03*
D26*
X163445000Y-82020000D02*
X163450000Y-82015000D01*
D27*
X161950000Y-82020000D02*
X163445000Y-82020000D01*
D26*
X163445000Y-95980000D02*
X163450000Y-95985000D01*
D27*
X161939999Y-95980000D02*
X163445000Y-95980000D01*
D26*
X110392500Y-91320000D02*
X110500000Y-91212500D01*
X109572510Y-91212500D02*
X109500000Y-91285010D01*
X110500000Y-91212500D02*
X109572510Y-91212500D01*
X109485010Y-91300000D02*
X109500000Y-91285010D01*
X150750000Y-97597500D02*
X150750000Y-98850000D01*
X106517247Y-91267247D02*
X106517247Y-91429808D01*
X106000000Y-90750000D02*
X106517247Y-91267247D01*
X106000000Y-90660000D02*
X106000000Y-90750000D01*
X105379998Y-113000000D02*
X105630000Y-112749998D01*
X104875000Y-113000000D02*
X105379998Y-113000000D01*
X105380002Y-112500000D02*
X105630000Y-112749998D01*
X104875000Y-112500000D02*
X105380002Y-112500000D01*
X111000000Y-114219996D02*
X110999996Y-114220000D01*
X154449996Y-96870000D02*
X154450000Y-96870004D01*
D27*
X152807500Y-96870000D02*
X154449996Y-96870000D01*
X179550000Y-83110000D02*
X179540004Y-83119996D01*
X179560000Y-83120000D02*
X179550000Y-83110000D01*
X179540004Y-83119996D02*
X178605685Y-83119996D01*
X178605685Y-83119996D02*
X178040000Y-83119996D01*
D28*
X160012500Y-87100000D02*
X158800000Y-87100000D01*
D26*
X154475000Y-90625000D02*
X154450000Y-90600000D01*
X157875000Y-93700000D02*
X157925000Y-93750000D01*
D28*
X157750000Y-93700000D02*
X156700000Y-93700000D01*
D29*
X154475000Y-91950000D02*
X154475000Y-90600000D01*
D26*
X114100000Y-113287500D02*
X114100000Y-114325000D01*
X111000000Y-114324996D02*
X110999996Y-114325000D01*
X111000000Y-113287500D02*
X111000000Y-114324996D01*
X150575000Y-87100000D02*
X150575000Y-86050000D01*
X146487500Y-88990000D02*
X148685000Y-88990000D01*
X148685000Y-88990000D02*
X150575000Y-87100000D01*
X112500000Y-111712500D02*
X112500000Y-111787500D01*
X111000000Y-111712500D02*
X112500000Y-111712500D01*
X108523589Y-112500000D02*
X108973600Y-112049989D01*
X110197500Y-111712500D02*
X111000000Y-111712500D01*
X108973600Y-112049989D02*
X109860011Y-112049989D01*
X109860011Y-112049989D02*
X110197500Y-111712500D01*
X107625000Y-112500000D02*
X108523589Y-112500000D01*
X122602500Y-105210000D02*
X122610000Y-105217500D01*
X119570000Y-105210000D02*
X122602500Y-105210000D01*
X122592500Y-100130000D02*
X122610000Y-100112500D01*
X119570000Y-100130000D02*
X122592500Y-100130000D01*
X148122070Y-95530011D02*
X143712081Y-99940000D01*
X143712081Y-99940000D02*
X142510000Y-99940000D01*
X149756400Y-95530011D02*
X148122070Y-95530011D01*
X151875000Y-93411411D02*
X149756400Y-95530011D01*
X151875000Y-91950000D02*
X151875000Y-93411411D01*
X140819999Y-101630001D02*
X139970000Y-102480000D01*
X141240000Y-99320000D02*
X141240000Y-101210000D01*
X143429989Y-98570011D02*
X141989989Y-98570011D01*
X144419990Y-98560010D02*
X143439990Y-98560010D01*
X149570000Y-95080000D02*
X147900000Y-95080000D01*
X147900000Y-95080000D02*
X144419990Y-98560010D01*
X141989989Y-98570011D02*
X141240000Y-99320000D01*
X143439990Y-98560010D02*
X143429989Y-98570011D01*
X151225000Y-93425000D02*
X149570000Y-95080000D01*
X141240000Y-101210000D02*
X140819999Y-101630001D01*
X151225000Y-91950000D02*
X151225000Y-93425000D01*
X150747500Y-96020000D02*
X150750000Y-96022500D01*
X148290000Y-96020000D02*
X150747500Y-96020000D01*
X144090000Y-100220000D02*
X148290000Y-96020000D01*
X144090000Y-102140000D02*
X144090000Y-100220000D01*
X142510000Y-102480000D02*
X143750000Y-102480000D01*
X143750000Y-102480000D02*
X144090000Y-102140000D01*
X150750000Y-95200000D02*
X150750000Y-96022500D01*
X152525000Y-91950000D02*
X152525000Y-93425000D01*
X152525000Y-93425000D02*
X150750000Y-95200000D01*
X133430000Y-107740000D02*
X137430000Y-103740000D01*
X113860000Y-107740000D02*
X133430000Y-107740000D01*
X137430000Y-103740000D02*
X141250000Y-103740000D01*
X112500000Y-104750000D02*
X112500000Y-106380000D01*
X141250000Y-103740000D02*
X142510000Y-102480000D01*
X112500000Y-106380000D02*
X113860000Y-107740000D01*
X140819999Y-99090001D02*
X139970000Y-99940000D01*
X150575000Y-91950000D02*
X150575000Y-93415000D01*
X149370000Y-94620000D02*
X147710000Y-94620000D01*
X147710000Y-94620000D02*
X144220000Y-98110000D01*
X150575000Y-93415000D02*
X149370000Y-94620000D01*
X144220000Y-98110000D02*
X141800000Y-98110000D01*
X141800000Y-98110000D02*
X140819999Y-99090001D01*
X163450000Y-83285000D02*
X156569698Y-83285000D01*
X155125000Y-84729698D02*
X156569698Y-83285000D01*
X155125000Y-86050000D02*
X155125000Y-84729698D01*
X155775000Y-85075000D02*
X155775000Y-86050000D01*
X156295000Y-84555000D02*
X155775000Y-85075000D01*
X163450000Y-84555000D02*
X156295000Y-84555000D01*
X157100000Y-86050000D02*
X156425000Y-86050000D01*
X163450000Y-85825000D02*
X157325000Y-85825000D01*
X157325000Y-85825000D02*
X157100000Y-86050000D01*
X152775000Y-87275000D02*
X152525000Y-87025000D01*
X155347000Y-87275000D02*
X152775000Y-87275000D01*
X152525000Y-87025000D02*
X152525000Y-86050000D01*
X163450000Y-88365000D02*
X156437000Y-88365000D01*
X156437000Y-88365000D02*
X155347000Y-87275000D01*
X161290000Y-88900000D02*
X156210000Y-88900000D01*
X163450000Y-89635000D02*
X162025000Y-89635000D01*
X162025000Y-89635000D02*
X161290000Y-88900000D01*
X153175000Y-84000000D02*
X153175000Y-86050000D01*
X155310000Y-88000000D02*
X156210000Y-88900000D01*
X153175000Y-88000000D02*
X155310000Y-88000000D01*
X163450000Y-90905000D02*
X162025000Y-90905000D01*
X160528000Y-89408000D02*
X155956000Y-89408000D01*
X162025000Y-90905000D02*
X160528000Y-89408000D01*
X153825000Y-84700000D02*
X153825000Y-86050000D01*
X155348000Y-88800000D02*
X155956000Y-89408000D01*
X153825000Y-88800000D02*
X155348000Y-88800000D01*
X154475000Y-84000000D02*
X154475000Y-86050000D01*
X162025000Y-92175000D02*
X163450000Y-92175000D01*
X159766000Y-89916000D02*
X162025000Y-92175000D01*
X155716000Y-89916000D02*
X159766000Y-89916000D01*
X154475000Y-89675000D02*
X155475000Y-89675000D01*
X155475000Y-89675000D02*
X155716000Y-89916000D01*
X155775000Y-90775000D02*
X155775000Y-91950000D01*
X156126000Y-90424000D02*
X155775000Y-90775000D01*
X159004000Y-90424000D02*
X156126000Y-90424000D01*
X163450000Y-93445000D02*
X162025000Y-93445000D01*
X162025000Y-93445000D02*
X159004000Y-90424000D01*
X156900000Y-91950000D02*
X156425000Y-91950000D01*
X159260000Y-91950000D02*
X156900000Y-91950000D01*
X163450000Y-94715000D02*
X162025000Y-94715000D01*
X162025000Y-94715000D02*
X159260000Y-91950000D01*
X153175000Y-90950000D02*
X153175000Y-91950000D01*
X152675000Y-90450000D02*
X153175000Y-90950000D01*
X147135001Y-93475000D02*
X150160001Y-90450000D01*
X133855000Y-93475000D02*
X147135001Y-93475000D01*
X123687500Y-103642500D02*
X133855000Y-93475000D01*
X122610000Y-103642500D02*
X123687500Y-103642500D01*
X150160001Y-90450000D02*
X152675000Y-90450000D01*
X123612500Y-101687500D02*
X122610000Y-101687500D01*
X153825000Y-90963589D02*
X152811411Y-89950000D01*
X153825000Y-91950000D02*
X153825000Y-90963589D01*
X152811411Y-89950000D02*
X149806410Y-89950000D01*
X149806410Y-89950000D02*
X147031410Y-92725000D01*
X147031410Y-92725000D02*
X132575000Y-92725000D01*
X132575000Y-92725000D02*
X123612500Y-101687500D01*
X112005001Y-91207499D02*
X112005001Y-90264999D01*
X109990002Y-90259998D02*
X111575736Y-90259998D01*
X111575736Y-90259998D02*
X112000000Y-90259998D01*
X109590000Y-90660000D02*
X109990002Y-90259998D01*
X106950000Y-90660000D02*
X109590000Y-90660000D01*
X112005001Y-90264999D02*
X112000000Y-90259998D01*
X106980000Y-111690000D02*
X107530011Y-111139989D01*
X109497189Y-111139989D02*
X110300000Y-110337178D01*
X107530011Y-111139989D02*
X109497189Y-111139989D01*
X110900001Y-94499999D02*
X111200000Y-94200000D01*
X110300000Y-95100000D02*
X110900001Y-94499999D01*
X106980000Y-112720000D02*
X106980000Y-111690000D01*
X107260000Y-113000000D02*
X106980000Y-112720000D01*
X110300000Y-110337178D02*
X110300000Y-95100000D01*
X107625000Y-113000000D02*
X107260000Y-113000000D01*
X151875000Y-87245000D02*
X151875000Y-86050000D01*
X112005001Y-91207499D02*
X112787502Y-91990000D01*
X147130000Y-91990000D02*
X151875000Y-87245000D01*
X112787502Y-91990000D02*
X147130000Y-91990000D01*
X113517502Y-91210000D02*
X113515001Y-91207499D01*
X151225000Y-86050000D02*
X151225000Y-87225000D01*
X151225000Y-87225000D02*
X147240000Y-91210000D01*
X113515001Y-91207499D02*
X114487503Y-91207499D01*
X114487503Y-91207499D02*
X114490004Y-91210000D01*
X147240000Y-91210000D02*
X115490004Y-91210000D01*
X111889262Y-93564998D02*
X112100000Y-93775736D01*
X109834998Y-93564998D02*
X111889262Y-93564998D01*
X106950000Y-93340000D02*
X109610000Y-93340000D01*
X112100000Y-93775736D02*
X112100000Y-94200000D01*
X109610000Y-93340000D02*
X109834998Y-93564998D01*
X115490004Y-91210000D02*
X114490004Y-91210000D01*
X111800001Y-94499999D02*
X112100000Y-94200000D01*
X108375000Y-112000000D02*
X108785000Y-111590000D01*
X107625000Y-112000000D02*
X108375000Y-112000000D01*
X110750011Y-110523578D02*
X110750011Y-95549989D01*
X108785000Y-111590000D02*
X109683590Y-111590000D01*
X110750011Y-95549989D02*
X111800001Y-94499999D01*
X109683590Y-111590000D02*
X110750011Y-110523578D01*
D27*
X179550000Y-81610000D02*
X182500000Y-81610000D01*
D26*
X112000000Y-92787500D02*
X112005001Y-92782499D01*
X110500000Y-92787500D02*
X112000000Y-92787500D01*
X112005001Y-92782499D02*
X113515001Y-92782499D01*
X110412500Y-92700000D02*
X110500000Y-92787500D01*
X106550000Y-92700000D02*
X110412500Y-92700000D01*
X106000000Y-93340000D02*
X106000000Y-93250000D01*
X106000000Y-93250000D02*
X106550000Y-92700000D01*
D27*
X141410000Y-107560000D02*
X139970000Y-107560000D01*
X142510000Y-107560000D02*
X141410000Y-107560000D01*
D26*
X111712500Y-112500000D02*
X109160000Y-112500000D01*
X107073600Y-113450011D02*
X106320000Y-112696411D01*
X106320000Y-112696411D02*
X106320000Y-112340000D01*
X105980000Y-112000000D02*
X105250000Y-112000000D01*
X105250000Y-112000000D02*
X104875000Y-112000000D01*
X112500000Y-113287500D02*
X111712500Y-112500000D01*
X108209989Y-113450011D02*
X107073600Y-113450011D01*
X109160000Y-112500000D02*
X108209989Y-113450011D01*
X106320000Y-112340000D02*
X105980000Y-112000000D01*
X114075000Y-111712500D02*
X112500000Y-113287500D01*
X114100000Y-111712500D02*
X114075000Y-111712500D01*
D28*
X114675000Y-111712500D02*
X114100000Y-111712500D01*
X133267500Y-111712500D02*
X115675000Y-111712500D01*
X139970000Y-107560000D02*
X137420000Y-107560000D01*
X137420000Y-107560000D02*
X133267500Y-111712500D01*
X159032500Y-96870000D02*
X159032500Y-96617500D01*
X114675000Y-111712500D02*
X115675000Y-111712500D01*
D26*
X163445000Y-87100000D02*
X163450000Y-87095000D01*
D27*
X161587500Y-87100000D02*
X163445000Y-87100000D01*
D26*
X160170000Y-96870000D02*
X159032500Y-96870000D01*
D29*
X155125000Y-91950000D02*
X155125000Y-93700000D01*
D26*
X157895000Y-96870000D02*
X159032500Y-96870000D01*
D28*
X157195000Y-96870000D02*
X157895000Y-96870000D01*
X155125000Y-93700000D02*
X155125000Y-94800000D01*
X155125000Y-94800000D02*
X157195000Y-96870000D01*
X164430000Y-96870000D02*
X160170000Y-96870000D01*
X165100000Y-96200000D02*
X164430000Y-96870000D01*
X165100000Y-87400000D02*
X165100000Y-96200000D01*
X163450000Y-87095000D02*
X164795000Y-87095000D01*
X164795000Y-87095000D02*
X165100000Y-87400000D01*
D26*
X113515001Y-93319999D02*
X113515001Y-92782499D01*
X113515001Y-93684999D02*
X113515001Y-93319999D01*
X111200022Y-108025022D02*
X111200022Y-95999978D01*
X111200022Y-95999978D02*
X113515001Y-93684999D01*
X114100000Y-111712500D02*
X114100000Y-110925000D01*
X114100000Y-110925000D02*
X111200022Y-108025022D01*
D27*
X159032500Y-105742500D02*
X159032500Y-96870000D01*
X151590000Y-111160000D02*
X153615000Y-111160000D01*
X153615000Y-111160000D02*
X159032500Y-105742500D01*
X149685000Y-111160000D02*
X151590000Y-111160000D01*
X142510000Y-107560000D02*
X146085000Y-107560000D01*
X146085000Y-107560000D02*
X149685000Y-111160000D01*
D26*
X144902500Y-89000000D02*
X144912500Y-88990000D01*
X140930000Y-89000000D02*
X144902500Y-89000000D01*
M02*
