M48
; DRILL file {KiCad 5.1.8-db9833491~87~ubuntu20.04.1} date Thu Nov 19 10:24:20 2020
; FORMAT={-:-/ absolute / inch / decimal}
; #@! TF.CreationDate,2020-11-19T10:24:20+01:00
; #@! TF.GenerationSoftware,Kicad,Pcbnew,5.1.8-db9833491~87~ubuntu20.04.1
; #@! TF.FileFunction,Plated,1,2,PTH
FMAT,2
INCH
T1C0.0157
T2C0.0354
T3C0.0394
T4C0.0400
T5C0.0512
%
G90
G05
T1
X4.1587Y-4.439
X4.1936Y-3.5996
X4.311Y-3.5939
X4.3701Y-4.501
X4.378Y-3.7087
X4.4094Y-3.5535
X4.4134Y-3.7087
X4.4921Y-4.501
X4.5075Y-3.5909
X5.935Y-3.8831
X6.0305Y-3.3071
X6.0305Y-3.4646
X6.0561Y-3.3346
X6.0561Y-3.4961
X6.0807Y-3.8138
X6.0817Y-3.3071
X6.0817Y-3.5305
X6.0817Y-3.5669
X6.2106Y-3.689
X6.2579Y-3.4291
X6.3756Y-3.7787
X6.376Y-3.2291
X7.0094Y-3.2724
T2
X4.7075Y-3.9421
X4.7075Y-4.0421
X4.7075Y-4.1421
T3
X7.185Y-3.213
X4.4291Y-3.9469
X4.4291Y-4.124
X5.5106Y-3.9346
X5.5106Y-4.0346
X5.5106Y-4.1346
X5.5106Y-4.2346
X5.6106Y-3.9346
X5.6106Y-4.0346
X5.6106Y-4.1346
X5.6106Y-4.2346
X5.2492Y-3.5039
X5.5484Y-3.5039
T4
X5.9681Y-4.3764
X6.7681Y-4.3764
T5
X4.5276Y-3.8976
X4.5276Y-4.1732
T0
M30
